<?xml version="1.0" encoding="UTF-8"?>
<svg width="512" height="512" viewBox="0 0 512 512" xmlns="http://www.w3.org/2000/svg">
  <defs>
    <linearGradient id="a" x1="0%" y1="0%" x2="100%" y2="100%">
      <stop offset="0%" stop-color="#6FBCF0"/>
      <stop offset="50%" stop-color="#4A8AF4"/>
      <stop offset="100%" stop-color="#6D5FF6"/>
    </linearGradient>
  </defs>
  <circle cx="256" cy="256" r="256" fill="url(#a)"/>
  <path fill="#ffffff" d="M320.4 263.3h-98.53c-3.641 0-7.264-.3584-10.83-1.067-3.562-.7088-7.026-1.775-10.4-3.2-3.373-1.425-6.576-3.192-9.6-5.333-3.024-2.144-5.808-4.608-8.334-7.403-2.528-2.793-4.717-5.888-6.564-9.28-1.851-3.392-3.283-6.992-4.304-10.79-1.018-3.8-1.53-7.712-1.53-11.73s.512-7.929 1.53-11.73c1.02-3.798 2.453-7.398 4.304-10.79 1.847-3.392 4.036-6.487 6.565-9.28 2.526-2.796 5.31-5.259 8.334-7.408 3.024-2.144 6.227-3.915 9.6-5.328 3.373-1.428 6.837-2.496 10.4-3.2 3.562-.7088 7.186-1.067 10.83-1.067H320.4v32H221.9c-3.84 0-7.104 1.344-9.766 4.032-2.664 2.688-4 5.952-4 9.792 0 3.84 1.336 7.08 4 9.728 2.661 2.648 5.925 3.968 9.766 3.968H320.4v32zm0 32h-98.53c-7.68 0-14.94-1.493-21.78-4.48-6.848-2.984-12.83-7.055-17.93-12.19-5.104-5.134-9.168-11.1-12.19-17.93-3.02-6.829-4.534-14.09-4.534-21.77 0-7.68 1.514-14.94 4.534-21.77 3.021-6.829 7.085-12.8 12.19-17.93 5.104-5.134 11.08-9.205 17.93-12.19 6.839-2.988 14.1-4.48 21.78-4.48H352.4v96h-32v-32h.0008z"/>
</svg>
